<svg width="72" height="72" viewBox="0 0 72 72" fill="none" xmlns="http://www.w3.org/2000/svg">
<g clip-path="url(#clip0_1102_1743)">
<path d="M36.287 49.2289C36.6542 49.2289 37.0064 49.083 37.266 48.8233C37.5257 48.5636 37.6716 48.2115 37.6716 47.8442V41.2376C37.6716 40.8704 37.5257 40.5182 37.266 40.2586C37.0064 39.9989 36.6542 39.853 36.287 39.853C35.9197 39.853 35.5676 39.9989 35.3079 40.2586C35.0482 40.5182 34.9023 40.8704 34.9023 41.2376V47.8442C34.9023 48.2115 35.0482 48.5636 35.3079 48.8233C35.5676 49.083 35.9197 49.2289 36.287 49.2289Z" fill="#2B8761"/>
<path d="M36.287 19.7802C36.6542 19.7802 37.0064 19.6343 37.266 19.3747C37.5257 19.115 37.6716 18.7628 37.6716 18.3956V11.8207C37.6716 11.4534 37.5257 11.1012 37.266 10.8416C37.0064 10.5819 36.6542 10.436 36.287 10.436C35.9197 10.436 35.5676 10.5819 35.3079 10.8416C35.0482 11.1012 34.9023 11.4534 34.9023 11.8207V18.4272C34.9106 18.789 35.0601 19.1331 35.3189 19.3859C35.5777 19.6388 35.9252 19.7803 36.287 19.7802Z" fill="#2B8761"/>
<path d="M36.287 34.5204C36.6542 34.5204 37.0064 34.3745 37.266 34.1148C37.5257 33.8551 37.6716 33.503 37.6716 33.1357V26.5291C37.6716 26.1619 37.5257 25.8097 37.266 25.5501C37.0064 25.2904 36.6542 25.1445 36.287 25.1445C35.9197 25.1445 35.5676 25.2904 35.3079 25.5501C35.0482 25.8097 34.9023 26.1619 34.9023 26.5291V33.1357C34.9023 33.503 35.0482 33.8551 35.3079 34.1148C35.5676 34.3745 35.9197 34.5204 36.287 34.5204Z" fill="#2B8761"/>
<path d="M46.1036 19.7802C46.4626 19.7762 46.8061 19.6329 47.0615 19.3804C47.3168 19.128 47.4642 18.7862 47.4724 18.4272V11.8207C47.4724 11.4534 47.3265 11.1012 47.0668 10.8416C46.8071 10.5819 46.455 10.436 46.0877 10.436C45.7205 10.436 45.3683 10.5819 45.1087 10.8416C44.849 11.1012 44.7031 11.4534 44.7031 11.8207V18.4272C44.7114 18.7917 44.8631 19.1382 45.1253 19.3915C45.3875 19.6448 45.739 19.7845 46.1036 19.7802Z" fill="#2B8761"/>
<path d="M46.1036 34.5204C46.468 34.5162 46.8162 34.3685 47.0724 34.1093C47.3287 33.85 47.4724 33.5002 47.4724 33.1357V26.5291C47.4724 26.1619 47.3265 25.8097 47.0668 25.5501C46.8071 25.2904 46.455 25.1445 46.0877 25.1445C45.7205 25.1445 45.3683 25.2904 45.1087 25.5501C44.849 25.8097 44.7031 26.1619 44.7031 26.5291V33.1357C44.7031 33.3189 44.7394 33.5003 44.81 33.6693C44.8806 33.8383 44.984 33.9917 45.1142 34.1204C45.2445 34.2492 45.399 34.3509 45.5688 34.4195C45.7387 34.4882 45.9204 34.5224 46.1036 34.5204Z" fill="#2B8761"/>
<path d="M46.1036 49.2289C46.468 49.2247 46.8162 49.077 47.0724 48.8178C47.3287 48.5585 47.4724 48.2087 47.4724 47.8442V41.2376C47.4724 40.8704 47.3265 40.5182 47.0668 40.2586C46.8071 39.9989 46.455 39.853 46.0877 39.853C45.7205 39.853 45.3683 39.9989 45.1087 40.2586C44.849 40.5182 44.7031 40.8704 44.7031 41.2376V47.8442C44.7031 48.0274 44.7394 48.2088 44.81 48.3778C44.8806 48.5468 44.984 48.7002 45.1142 48.8289C45.2445 48.9577 45.399 49.0594 45.5688 49.128C45.7387 49.1967 45.9204 49.2309 46.1036 49.2289Z" fill="#2B8761"/>
<path d="M62.3338 54.4904H63.5048C63.872 54.4904 64.2242 54.3445 64.4839 54.0849C64.7436 53.8252 64.8894 53.473 64.8894 53.1058C64.8894 52.7386 64.7436 52.3864 64.4839 52.1267C64.2242 51.8671 63.872 51.7212 63.5048 51.7212H62.3338C61.9666 51.7212 61.6144 51.8671 61.3548 52.1267C61.0951 52.3864 60.9492 52.7386 60.9492 53.1058C60.9492 53.473 61.0951 53.8252 61.3548 54.0849C61.6144 54.3445 61.9666 54.4904 62.3338 54.4904Z" fill="#2B8761"/>
<path d="M62.3338 46.5622H63.5048C63.872 46.5622 64.2242 46.4163 64.4839 46.1567C64.7436 45.897 64.8894 45.5448 64.8894 45.1776C64.8894 44.8104 64.7436 44.4582 64.4839 44.1985C64.2242 43.9388 63.872 43.793 63.5048 43.793H62.3338C61.9666 43.793 61.6144 43.9388 61.3548 44.1985C61.0951 44.4582 60.9492 44.8104 60.9492 45.1776C60.9492 45.5448 61.0951 45.897 61.3548 46.1567C61.6144 46.4163 61.9666 46.5622 62.3338 46.5622Z" fill="#2B8761"/>
<path d="M62.3338 62.3469H63.5048C63.872 62.3469 64.2242 62.201 64.4839 61.9413C64.7436 61.6817 64.8894 61.3295 64.8894 60.9623C64.8894 60.595 64.7436 60.2428 64.4839 59.9832C64.2242 59.7235 63.872 59.5776 63.5048 59.5776H62.3338C61.9666 59.5776 61.6144 59.7235 61.3548 59.9832C61.0951 60.2428 60.9492 60.595 60.9492 60.9623C60.9492 61.3295 61.0951 61.6817 61.3548 61.9413C61.6144 62.201 61.9666 62.3469 62.3338 62.3469Z" fill="#2B8761"/>
<path d="M19.6073 38.7058H20.7703C21.1376 38.7058 21.4898 38.5599 21.7494 38.3002C22.0091 38.0405 22.155 37.6884 22.155 37.3211C22.155 36.9539 22.0091 36.6017 21.7494 36.3421C21.4898 36.0824 21.1376 35.9365 20.7703 35.9365H19.6073C19.24 35.9365 18.8879 36.0824 18.6282 36.3421C18.3685 36.6017 18.2227 36.9539 18.2227 37.3211C18.2227 37.6884 18.3685 38.0405 18.6282 38.3002C18.8879 38.5599 19.24 38.7058 19.6073 38.7058Z" fill="#2B8761"/>
<path d="M19.6073 30.778H20.7703C21.1376 30.778 21.4898 30.6321 21.7494 30.3725C22.0091 30.1128 22.155 29.7606 22.155 29.3934C22.155 29.0262 22.0091 28.674 21.7494 28.4143C21.4898 28.1547 21.1376 28.0088 20.7703 28.0088H19.6073C19.24 28.0088 18.8879 28.1547 18.6282 28.4143C18.3685 28.674 18.2227 29.0262 18.2227 29.3934C18.2227 29.7606 18.3685 30.1128 18.6282 30.3725C18.8879 30.6321 19.24 30.778 19.6073 30.778Z" fill="#2B8761"/>
<path d="M19.6073 46.5622H20.7703C21.1376 46.5622 21.4898 46.4163 21.7494 46.1567C22.0091 45.897 22.155 45.5448 22.155 45.1776C22.155 44.8104 22.0091 44.4582 21.7494 44.1985C21.4898 43.9388 21.1376 43.793 20.7703 43.793H19.6073C19.24 43.793 18.8879 43.9388 18.6282 44.1985C18.3685 44.4582 18.2227 44.8104 18.2227 45.1776C18.2227 45.5448 18.3685 45.897 18.6282 46.1567C18.8879 46.4163 19.24 46.5622 19.6073 46.5622Z" fill="#2B8761"/>
<path d="M70.0547 32.4868H57.1105V2.60288C57.1105 2.23565 56.9647 1.88347 56.705 1.62381C56.4453 1.36414 56.0932 1.21826 55.7259 1.21826H26.6648C26.3045 1.22856 25.9624 1.37897 25.7112 1.63753C25.4601 1.89609 25.3196 2.24241 25.3198 2.60288V19.8908H13.7127C13.3455 19.8908 12.9933 20.0367 12.7337 20.2963C12.474 20.556 12.3281 20.9082 12.3281 21.2754V38.4921C12.3281 38.8593 12.474 39.2115 12.7337 39.4712C12.9933 39.7308 13.3455 39.8767 13.7127 39.8767C14.08 39.8767 14.4321 39.7308 14.6918 39.4712C14.9515 39.2115 15.0974 38.8593 15.0974 38.4921V22.6679H25.3198V68.9932H15.0341C14.6668 68.9932 14.3147 69.1391 14.055 69.3988C13.7953 69.6584 13.6494 70.0106 13.6494 70.3778C13.6494 70.745 13.7953 71.0972 14.055 71.3569C14.3147 71.6166 14.6668 71.7624 15.0341 71.7624H65.3233C66.9406 71.7604 68.4915 71.1186 69.6373 69.9772C70.7832 68.8358 71.431 67.2874 71.4393 65.6701V33.8714C71.4393 33.5042 71.2935 33.152 71.0338 32.8924C70.7741 32.6327 70.4219 32.4868 70.0547 32.4868ZM37.6705 68.9932V57.9717H44.7202V68.9932H37.6705ZM54.3413 68.9932H47.4736V56.5871C47.4736 56.2198 47.3277 55.8676 47.0681 55.608C46.8084 55.3483 46.4562 55.2024 46.089 55.2024H36.2859C35.9187 55.2024 35.5665 55.3483 35.3069 55.608C35.0472 55.8676 34.9013 56.2198 34.9013 56.5871V68.9932H28.0494V3.95584H54.3413V68.9932ZM68.6701 65.6701C68.6701 66.5585 68.3178 67.4106 67.6903 68.0395C67.0629 68.6684 66.2116 69.0228 65.3233 69.0249H57.1185V35.2561H68.6701V65.6701Z" fill="#2B8761"/>
<path d="M17.6369 52.5994C17.6369 46.9581 10.247 42.7014 9.93054 42.5273C9.72392 42.4071 9.48914 42.3438 9.25009 42.3438C9.01105 42.3438 8.77627 42.4071 8.56966 42.5273C8.25317 42.7014 0.863281 46.9581 0.863281 52.5994C0.863281 57.679 3.90152 61.8961 7.86548 62.7031V70.4174C7.86548 70.7846 8.01136 71.1368 8.27102 71.3965C8.53069 71.6562 8.88287 71.802 9.25009 71.802C9.61732 71.802 9.9695 71.6562 10.2292 71.3965C10.4888 71.1368 10.6347 70.7846 10.6347 70.4174V62.7427C14.5987 61.8961 17.6369 57.679 17.6369 52.5994ZM3.63251 52.5994C3.63251 49.6324 7.21669 46.6732 9.25009 45.3519C11.2835 46.6732 14.8677 49.6165 14.8677 52.5994C14.8677 56.0886 13.0637 59.024 10.6347 59.8469V56.5871C10.6347 56.2199 10.4888 55.8677 10.2292 55.608C9.9695 55.3483 9.61732 55.2025 9.25009 55.2025C8.88287 55.2025 8.53069 55.3483 8.27102 55.608C8.01136 55.8677 7.86548 56.2199 7.86548 56.5871V59.8469C5.43647 59.024 3.63251 56.0965 3.63251 52.5994Z" fill="#2B8761"/>
</g>
<defs>
<clipPath id="clip0_1102_1743">
<rect width="72" height="72" fill="white"/>
</clipPath>
</defs>
</svg>
