<svg width="72" height="72" viewBox="0 0 72 72" fill="none" xmlns="http://www.w3.org/2000/svg">
<path d="M20.5532 24.6602H5.29384C4.70856 24.6602 4.23438 25.1345 4.23438 25.7196V62.6209C4.23438 63.206 4.7087 63.6804 5.29384 63.6804H66.7034C67.2887 63.6804 67.7628 63.206 67.7628 62.6209V25.7196C67.7628 25.1345 67.2885 24.6602 66.7034 24.6602H24.7914C24.2061 24.6602 23.7319 25.1345 23.7319 25.7196C23.7319 26.3048 24.2062 26.7791 24.7914 26.7791H65.6439V61.5613H6.35331V26.7791H20.5532C21.1385 26.7791 21.6127 26.3048 21.6127 25.7196C21.6128 25.1345 21.1385 24.6602 20.5532 24.6602Z" fill="white"/>
<path d="M68.1151 20.4346H63.4507L40.3349 9.01725C40.3875 8.75512 40.4155 8.48428 40.4155 8.20696C40.4155 5.93868 38.5702 4.09326 36.3019 4.09326C34.0336 4.09326 32.1882 5.93868 32.1882 8.20696C32.1882 8.48428 32.2162 8.75526 32.2688 9.01725L9.153 20.4346H3.88491C1.74277 20.4346 0 22.1774 0 24.3195V64.0215C0 66.1636 1.74277 67.9064 3.88491 67.9064H49.0029C49.588 67.9064 50.0624 67.432 50.0624 66.8469C50.0624 66.2617 49.588 65.7874 49.0029 65.7874H3.88491C2.91122 65.7874 2.11908 64.9953 2.11908 64.0216V24.3195C2.11908 23.3458 2.91122 22.5537 3.88491 22.5537H44.3475C44.9328 22.5537 45.407 22.0793 45.407 21.4942C45.407 20.9091 44.9326 20.4347 44.3475 20.4347H13.9382L33.21 10.916C33.9645 11.7762 35.0705 12.3208 36.3019 12.3208C37.5334 12.3208 38.6394 11.7762 39.3938 10.916L58.6657 20.4347H48.5857C48.0005 20.4347 47.5262 20.9091 47.5262 21.4942C47.5262 22.0793 48.0005 22.5537 48.5857 22.5537H68.1151C69.0888 22.5537 69.8809 23.3458 69.8809 24.3195V64.0215C69.8809 64.9951 69.0888 65.7873 68.1151 65.7873H53.2409C52.6556 65.7873 52.1814 66.2616 52.1814 66.8467C52.1814 67.4319 52.6558 67.9062 53.2409 67.9062H68.1151C70.2572 67.9062 72 66.1634 72 64.0213V24.3195C72 22.1774 70.2574 20.4346 68.1151 20.4346ZM36.3019 10.2017C35.2021 10.2017 34.3073 9.30693 34.3073 8.20711C34.3073 7.10728 35.2021 6.21248 36.3019 6.21248C37.4017 6.21248 38.2965 7.10728 38.2965 8.20711C38.2964 9.30693 37.4016 10.2017 36.3019 10.2017Z" fill="white"/>
<path d="M18.047 38.7894C18.6322 38.7894 19.1065 38.315 19.1065 37.7299C19.1065 37.1447 18.6322 36.6704 18.047 36.6704H13.497C12.9117 36.6704 12.4375 37.1447 12.4375 37.7299V49.0582C12.4375 49.0593 12.4376 49.0603 12.4376 49.0614C12.4376 49.0626 12.4375 49.0636 12.4375 49.0647C12.4375 49.6498 12.9118 50.1241 13.497 50.1241H18.047C18.6322 50.1241 19.1065 49.6498 19.1065 49.0647C19.1065 48.4795 18.6322 48.0052 18.047 48.0052H14.5564V44.4568H18.047C18.6322 44.4568 19.1065 43.9825 19.1065 43.3973C19.1065 42.8122 18.6322 42.3379 18.047 42.3379H14.5564V38.7896H18.047V38.7894Z" fill="white"/>
<path d="M32.9227 50.1244H37.473C38.0581 50.1244 38.5324 49.65 38.5324 49.0649C38.5324 48.4797 38.0581 48.0054 37.473 48.0054H33.9822V44.457H37.473C38.0581 44.457 38.5324 43.9827 38.5324 43.3976C38.5324 42.8124 38.0581 42.3381 37.473 42.3381H33.9822V38.7898H37.473C38.0581 38.7898 38.5324 38.3155 38.5324 37.7304C38.5324 37.1452 38.0581 36.6709 37.473 36.6709H32.9227C32.3376 36.6709 31.8633 37.1452 31.8633 37.7304V49.0587C31.8633 49.0598 31.8634 49.0608 31.8634 49.0619C31.8634 49.0631 31.8633 49.064 31.8633 49.0652C31.8633 49.65 32.3375 50.1244 32.9227 50.1244Z" fill="white"/>
<path d="M20.4532 38.0146L23.4232 48.6727C23.6651 49.5411 24.4333 50.1244 25.3347 50.1244C26.236 50.1244 27.0042 49.5409 27.2461 48.6727L30.2161 38.0146C30.3732 37.451 30.0436 36.8667 29.4799 36.7096C28.9157 36.5524 28.3319 36.8823 28.1748 37.4458L25.3346 47.6381L22.4942 37.4458C22.3373 36.8822 21.7536 36.5527 21.1891 36.7096C20.6259 36.8667 20.2961 37.451 20.4532 38.0146Z" fill="white"/>
<path d="M42.865 49.0584V41.7772L47.2534 49.584C47.5012 50.0246 48.0433 50.231 48.5217 50.0666C48.9447 49.9214 49.2365 49.5119 49.2365 49.0647V37.73C49.2365 37.1449 48.7621 36.6706 48.177 36.6706C47.5919 36.6706 47.1175 37.1449 47.1175 37.73V45.0176L42.7292 37.2108C42.4929 36.7908 42.003 36.5831 41.5373 36.705C41.0711 36.8271 40.7461 37.2481 40.7461 37.73V49.0584C40.7461 49.6435 41.2204 50.1178 41.8056 50.1178C42.3908 50.118 42.865 49.6435 42.865 49.0584Z" fill="white"/>
<path d="M55.4515 50.1244C56.0368 50.1244 56.511 49.65 56.511 49.0649V38.7962H59.1092C59.6944 38.7962 60.1686 38.3219 60.1686 37.7367C60.1686 37.1516 59.6943 36.6772 59.1092 36.6772H51.7938C51.2086 36.6772 50.7344 37.1516 50.7344 37.7367C50.7344 38.3219 51.2087 38.7962 51.7938 38.7962H54.392V49.0649C54.392 49.65 54.8664 50.1244 55.4515 50.1244Z" fill="white"/>
</svg>
