<svg width="72" height="72" viewBox="0 0 72 72" fill="none" xmlns="http://www.w3.org/2000/svg">
<g clip-path="url(#clip0_1102_1822)">
<path d="M68.8287 33.3097H62.9086C65.0181 31.5875 66.3678 28.9683 66.3678 26.039C66.3678 20.8646 62.1581 16.6548 56.9836 16.6548H54.7715C55.4171 15.786 55.7996 14.7108 55.7996 13.5479C55.7996 11.8493 54.9838 10.3382 53.7238 9.38418C54.9837 8.4302 55.7996 6.91906 55.7996 5.22048C55.7997 2.34193 53.4579 0 50.5794 0H21.4195C18.541 0 16.1992 2.34193 16.1992 5.22048C16.1992 6.91906 17.0149 8.4302 18.2749 9.38418C17.0149 10.3382 16.1992 11.8493 16.1992 13.5479C16.1992 14.711 16.5818 15.786 17.2273 16.6548H10.8514C7.97289 16.6548 5.63096 18.9967 5.63096 21.8753C5.63096 23.5739 6.44671 25.085 7.70669 26.039C6.44671 26.993 5.63096 28.5041 5.63096 30.2027C5.63096 31.3658 6.01359 32.441 6.65919 33.3097H3.1702C1.42212 33.3097 0 34.7319 0 36.4799V40.8835C0 42.6316 1.42212 44.0538 3.1702 44.0538H4.03602L7.64144 67.5188C8.04039 70.1154 10.2368 72 12.8639 72H59.135C61.762 72 63.9582 70.1154 64.3573 67.5188L67.9627 44.0538H68.8285C70.5766 44.0538 71.9987 42.6316 71.9987 40.8835V36.4799C71.9989 34.7319 70.5766 33.3097 68.8287 33.3097ZM53.6863 5.22048C53.6863 6.93369 52.2926 8.3274 50.5794 8.3274H42.7991L49.9387 2.11342H50.5794C52.2926 2.11342 53.6863 3.50727 53.6863 5.22048ZM46.7195 2.11342L35.9994 11.4437L25.2793 2.11342H46.7195ZM18.3126 5.22048C18.3126 3.50727 19.7063 2.11356 21.4195 2.11356H22.0601L29.1996 8.32754H21.4195C19.7063 8.3274 18.3126 6.93369 18.3126 5.22048ZM7.74438 30.2027C7.74438 28.4895 9.13809 27.0958 10.8513 27.0958H17.2242C17.8078 27.0958 18.281 26.6227 18.281 26.039C18.281 25.4554 17.8078 24.9822 17.2242 24.9822H10.8514C9.13823 24.9822 7.74452 23.5885 7.74452 21.8753C7.74452 20.1621 9.13823 18.7684 10.8514 18.7684H43.3675C43.9512 18.7684 44.4243 18.2953 44.4243 17.7116C44.4243 17.1279 43.9512 16.6548 43.3675 16.6548H21.4195C19.7063 16.6548 18.3126 15.2611 18.3126 13.5479C18.3126 11.8347 19.7063 10.4408 21.4195 10.4408H31.6279L35.3056 13.6418C35.7033 13.988 36.2955 13.988 36.6931 13.6418L40.3708 10.441H50.5794C52.2926 10.441 53.6863 11.8347 53.6863 13.548C53.6863 15.2612 52.2926 16.6549 50.5794 16.6549H47.5945C47.0108 16.6549 46.5377 17.1281 46.5377 17.7117C46.5377 18.2953 47.0108 18.7685 47.5945 18.7685H56.9837C60.9929 18.7685 64.2544 22.0301 64.2544 26.0393C64.2544 30.0483 60.9928 33.31 56.9837 33.31H10.8514C9.13823 33.3097 7.74438 31.9159 7.74438 30.2027ZM63.2763 60.6378H54.6047L55.2729 53.2738H64.4078L63.2763 60.6378ZM52.4824 60.6378H42.8739L43.0955 53.2738H53.1506L52.4824 60.6378ZM48.7476 69.8864H41.6417C42.2687 69.0462 42.652 68.0097 42.6862 66.8751L42.8102 62.7512H52.2905L51.9046 67.0027C51.7557 68.6467 50.3984 69.8864 48.7476 69.8864ZM34.5939 69.8864C32.8689 69.8864 31.477 68.5358 31.4251 66.8116L31.3029 62.7512H40.6958L40.5736 66.8116C40.5217 68.5358 39.1298 69.8864 37.405 69.8864H34.5939ZM23.2513 69.8864C21.6005 69.8864 20.2432 68.6467 20.094 67.0028L19.7081 62.7514H29.1885L29.3125 66.8753C29.3467 68.0098 29.7299 69.0464 30.3569 69.8866H23.2513V69.8864ZM7.59096 53.274H16.7258L17.3941 60.638H8.72241L7.59096 53.274ZM18.8481 53.274H28.9033L29.125 60.638H19.5163L18.8481 53.274ZM40.7594 60.6378H31.2394L31.0177 53.2738H40.981L40.7594 60.6378ZM30.9542 51.1605L30.7403 44.0538H41.2585L41.0446 51.1605H30.9542ZM28.6259 44.0538L28.8398 51.1605H18.6563L18.0114 44.0538H28.6259ZM15.8893 44.0538L16.5341 51.1605H7.26626L6.17433 44.0538H15.8893ZM9.7304 67.1977L9.04725 62.7514H17.586L17.9892 67.1938C18.0811 68.2071 18.4492 69.1279 19.0147 69.8864H12.8639C11.2875 69.8864 9.96974 68.7557 9.7304 67.1977ZM62.2683 67.1977C62.029 68.7557 60.7112 69.8864 59.135 69.8864H52.984C53.5497 69.1278 53.9177 68.2071 54.0096 67.1938L54.4127 62.7514H62.9513L62.2683 67.1977ZM64.7325 51.1605H55.4647L56.1096 44.0538H65.8244L64.7325 51.1605ZM69.8853 40.8835C69.8853 41.4663 69.4113 41.9403 68.8285 41.9403H50.5794C49.9956 41.9403 49.5226 42.4134 49.5226 42.9971C49.5226 43.5808 49.9956 44.0539 50.5794 44.0539H53.9875L53.3426 51.1607H43.1593L43.3731 44.0539H46.3525C46.9362 44.0539 47.4093 43.5807 47.4093 42.9971C47.4093 42.4135 46.9362 41.9403 46.3525 41.9403H3.1702C2.58746 41.9403 2.11342 41.4663 2.11342 40.8835V36.4799C2.11342 35.8972 2.58746 35.4232 3.1702 35.4232H68.8287C69.4114 35.4232 69.8855 35.8972 69.8855 36.4799V40.8835H69.8853Z" fill="#2B8761"/>
<path d="M57.408 26.0392C57.408 25.4556 56.9349 24.9824 56.3512 24.9824H21.4513C20.8677 24.9824 20.3945 25.4556 20.3945 26.0392C20.3945 26.6228 20.8676 27.096 21.4513 27.096H56.3512C56.9349 27.096 57.408 26.6229 57.408 26.0392Z" fill="#2B8761"/>
</g>
<defs>
<clipPath id="clip0_1102_1822">
<rect width="72" height="72" fill="white"/>
</clipPath>
</defs>
</svg>
