<svg width="72" height="72" viewBox="0 0 72 72" fill="none" xmlns="http://www.w3.org/2000/svg">
<g clip-path="url(#clip0_1102_1803)">
<path d="M68.4 45.6C70.3836 45.5889 71.9889 43.9836 72 42C72 40.0118 70.3882 38.4 68.4 38.4H58.152C60.7462 35.5173 60.591 31.0978 57.8011 28.4041C55.0111 25.7104 50.5889 25.7104 47.7989 28.4041C45.009 31.0978 44.8538 35.5173 47.448 38.4H37.2C35.2164 38.4112 33.6111 40.0164 33.6 42C33.6 43.9882 35.2118 45.6 37.2 45.6H46.8V55.5528L41.178 66.7956C40.7438 67.6694 40.6866 68.6829 41.0196 69.6H31.2C30.5373 69.6 30 70.1373 30 70.8C30 71.4628 30.5373 72 31.2 72H70.8C71.4627 72 72 71.4628 72 70.8C72 70.1373 71.4627 69.6 70.8 69.6H64.5816C64.9137 68.6827 64.856 67.6694 64.422 66.7956L58.8 55.5528V45.6H68.4ZM48 33.6C48 30.9491 50.149 28.8 52.8 28.8C55.451 28.8 57.6 30.9491 57.6 33.6C57.6 36.251 55.451 38.4 52.8 38.4C50.149 38.4 48 36.251 48 33.6ZM47.8248 69.6L52.806 59.6484L57.7764 69.6H47.8248ZM56.526 56.3724L62.2752 67.8684C62.5681 68.4629 62.3237 69.1823 61.7292 69.4752C61.1351 69.7531 60.4276 69.5134 60.1248 68.9316L54.7968 58.2636L53.874 56.4276C53.6707 56.0208 53.2548 55.7638 52.8 55.764C52.3455 55.7652 51.9307 56.023 51.7284 56.43L45.4716 68.9376C45.1661 69.5121 44.4655 69.7485 43.8744 69.4764C43.588 69.3364 43.3691 69.0881 43.2659 68.7865C43.1628 68.4848 43.184 68.1545 43.3248 67.8684L49.074 56.3724C49.155 56.2053 49.196 56.0217 49.194 55.836V44.4C49.194 43.7373 48.6567 43.2 47.994 43.2H37.2C36.5373 43.2 36 42.6628 36 42C35.9995 41.6768 36.1324 41.3677 36.3672 41.1456C36.5861 40.9217 36.8869 40.7969 37.2 40.8H68.4C69.0627 40.8 69.6 41.3373 69.6 42C69.6005 42.3232 69.4676 42.6323 69.2328 42.8544C69.0139 43.0783 68.7131 43.2032 68.4 43.2H57.6C56.9373 43.2 56.4 43.7373 56.4 44.4V55.836C56.3998 56.0222 56.443 56.2058 56.526 56.3724Z" fill="#2B8761"/>
<path d="M28.8237 47.981C29.6649 47.9836 30.4431 47.5358 30.8637 46.8074C31.3034 46.0677 31.3135 45.1493 30.8901 44.4002L24.1701 32.381H25.3005C26.1418 32.3841 26.9203 31.9362 27.3405 31.2074C27.7817 30.4686 27.7936 29.5501 27.3717 28.8002L21.3261 17.981H22.9605C23.8018 17.9838 24.5801 17.536 25.0005 16.8074C25.4398 16.0675 25.4495 15.1491 25.0257 14.4002L17.6649 1.22055C17.2495 0.468137 16.458 0.000976562 15.5985 0.000976562C14.7391 0.000976562 13.9475 0.468137 13.5321 1.22055L6.17132 14.4002C5.74805 15.1487 5.75767 16.0666 6.19652 16.8062C6.61692 17.5348 7.39529 17.9826 8.23652 17.9798H9.87092L3.82532 28.8002C3.40474 29.5474 3.4148 30.4623 3.85172 31.2002C4.27194 31.929 5.05042 32.3769 5.89172 32.3738H7.02212L0.30692 44.4002C-0.116346 45.1488 -0.106733 46.0666 0.33212 46.8062C0.752702 47.5346 1.53095 47.9824 2.37212 47.9798H10.7985V59.1134C8.71766 58.6383 6.55296 58.6716 4.48772 59.2106C3.9518 59.3537 3.58387 59.8456 3.59785 60.4001C3.61183 60.9547 4.00407 61.4274 4.54652 61.5434C7.69772 62.2202 9.27932 66.7874 9.86132 69.6002H1.19852C0.535778 69.6002 -0.00147997 70.1374 -0.00147997 70.8002C-0.00147997 71.4629 0.535778 72.0002 1.19852 72.0002H25.1985C25.8613 72.0002 26.3985 71.4629 26.3985 70.8002C26.3985 70.1374 25.8613 69.6002 25.1985 69.6002H21.3345C21.9117 66.7886 23.4885 62.2226 26.6505 61.5446C27.193 61.4286 27.5852 60.9559 27.5992 60.4013C27.6132 59.8468 27.2452 59.3549 26.7093 59.2118C24.7323 58.6997 22.6643 58.6468 20.6637 59.057C21.1373 56.389 21.9494 53.7924 23.0805 51.3302C23.2786 50.9313 23.2395 50.4556 22.979 50.0945C22.7185 49.7333 22.2795 49.5461 21.8385 49.6082C21.3533 49.6789 20.8725 49.7775 20.3985 49.9034V47.9834L28.8237 47.981ZM10.1145 31.7666C10.3223 31.3949 10.3176 30.941 10.1021 30.5737C9.88666 30.2065 9.49272 29.9809 9.06692 29.981L5.92172 29.9714L12.9633 17.3714C13.1711 16.9997 13.1664 16.5458 12.9509 16.1785C12.7355 15.8113 12.3415 15.5857 11.9157 15.5858L8.26652 15.5714L15.5697 2.39055L22.9605 15.581H19.2813C18.8555 15.5809 18.4616 15.8065 18.2461 16.1737C18.0306 16.541 18.0259 16.9949 18.2337 17.3666L25.3053 29.981H22.1301C21.7043 29.9809 21.3104 30.2065 21.0949 30.5737C20.8794 30.941 20.8747 31.3949 21.0825 31.7666L28.7841 45.581H19.2069H14.8173L2.39852 45.5714L10.1145 31.7666ZM18.8937 69.6002H12.3033C11.9505 67.697 10.9569 63.6938 8.53652 61.2002C10.7757 61.3106 13.4565 62.1602 14.4525 65.363C14.6084 65.8649 15.0729 66.207 15.5985 66.207C16.1242 66.207 16.5886 65.8649 16.7445 65.363C17.7381 62.1614 20.4213 61.3106 22.6605 61.2002C20.2401 63.6938 19.2465 67.697 18.8937 69.6002ZM15.5985 62.2658C15.0711 61.5093 14.4069 60.8581 13.6401 60.3458C14.6793 56.7458 16.4913 54.2438 19.0485 52.9478C19.2357 52.8542 19.4325 52.7606 19.6725 52.6646C19.7685 52.6226 19.8669 52.583 19.9665 52.5446C19.0631 54.9508 18.4367 57.4521 18.0993 60.0002C17.1039 60.5548 16.2485 61.3298 15.5985 62.2658ZM17.9985 50.7938L17.9721 50.8058C15.985 51.8341 14.3299 53.4043 13.1985 55.3346V47.981H17.9985V50.7938Z" fill="#2B8761"/>
<path d="M63.5992 0C58.96 0 55.1992 3.76081 55.1992 8.4C55.1992 13.0392 58.96 16.8 63.5992 16.8C68.2384 16.8 71.9992 13.0392 71.9992 8.4C71.9939 3.763 68.2362 0.00529037 63.5992 0ZM63.5992 14.4C60.2855 14.4 57.5992 11.7137 57.5992 8.4C57.5992 5.08629 60.2855 2.4 63.5992 2.4C66.9129 2.4 69.5992 5.08629 69.5992 8.4C69.5953 11.7121 66.9113 14.396 63.5992 14.4Z" fill="#2B8761"/>
<path d="M69.1106 22.9042C69.5115 22.9043 69.8859 22.7042 70.1086 22.3708C70.3314 22.0375 70.3729 21.6149 70.2194 21.2446L69.3014 19.027C69.0479 18.4146 68.3459 18.1237 67.7336 18.3772C67.1212 18.6307 66.8303 19.3326 67.0838 19.945L68.0018 22.1626C68.1873 22.6114 68.6249 22.9041 69.1106 22.9042Z" fill="#2B8761"/>
<path d="M49.1866 14.37C49.3084 14.6641 49.5421 14.8977 49.8363 15.0195C50.1304 15.1413 50.4609 15.1411 50.755 15.0192L52.9726 14.1C53.3692 13.9358 53.648 13.5725 53.7041 13.1469C53.7602 12.7214 53.585 12.2983 53.2445 12.0369C52.904 11.7756 52.45 11.7158 52.0534 11.88L49.8358 12.798C49.5408 12.9198 49.3064 13.1541 49.1846 13.4491C49.0628 13.7441 49.0635 14.0755 49.1866 14.37Z" fill="#2B8761"/>
<path d="M49.8338 3.99836L52.0514 4.91636C52.4495 5.09151 52.9111 5.03763 53.2581 4.77554C53.6051 4.51344 53.7831 4.08414 53.7234 3.6534C53.6638 3.22267 53.3758 2.8579 52.9707 2.69996L50.7578 1.78076C50.1455 1.52693 49.4433 1.81758 49.1894 2.42996C48.9356 3.04233 49.2263 3.74453 49.8386 3.99836H49.8338Z" fill="#2B8761"/>
<path d="M58.087 22.9042C58.5726 22.9041 59.0103 22.6114 59.1958 22.1626L60.1138 19.945C60.3673 19.3326 60.0764 18.6307 59.464 18.3772C58.8517 18.1237 58.1497 18.4146 57.8962 19.027L56.9782 21.2398C56.8247 21.6101 56.8662 22.0327 57.0889 22.366C57.3116 22.6994 57.6861 22.8995 58.087 22.8994V22.9042Z" fill="#2B8761"/>
</g>
<defs>
<clipPath id="clip0_1102_1803">
<rect width="72" height="72" fill="white"/>
</clipPath>
</defs>
</svg>
