<svg width="72" height="66" viewBox="0 0 72 66" fill="none" xmlns="http://www.w3.org/2000/svg">
<path d="M71.1243 36.6952C70.3215 35.4312 69.0743 34.5554 67.6126 34.2291C67.1249 34.1203 66.6378 34.0799 66.1607 34.0997V23.2851C66.1607 19.5664 63.1354 16.541 59.4167 16.541H56.483C55.9005 16.541 55.4283 17.0131 55.4283 17.5957C55.4283 18.1783 55.9004 18.6504 56.483 18.6504H59.4167C61.9722 18.6504 64.0513 20.7295 64.0513 23.2851V34.6101C62.5162 35.318 61.3154 36.7069 60.9197 38.4802L60.8512 38.7869C59.9331 38.3352 58.9147 38.0939 57.8831 38.0939H41.6585C39.8776 38.0939 38.2577 38.7922 37.055 39.9279V32.3099C37.055 31.7272 36.5829 31.2552 36.0003 31.2552C35.4177 31.2552 34.9456 31.7272 34.9456 32.3099V39.9292C33.7307 38.7855 32.0995 38.0939 30.3421 38.0939H14.1172C13.0695 38.0939 12.0629 38.3293 11.1482 38.7825L11.0807 38.4801C10.685 36.7068 9.48416 35.3178 7.9491 34.6099V23.285C7.9491 22.2841 8.27043 21.3276 8.85093 20.5395L9.31935 21.3962C9.57923 21.871 10.0768 22.1659 10.6179 22.1659C11.1591 22.1659 11.6565 21.8708 11.9164 21.3959L13.357 18.7622L13.5644 18.6487C13.5737 18.649 13.5828 18.6501 13.5922 18.6501H30.3109C32.8663 18.6501 34.9454 20.7292 34.9454 23.2848V27.7132C34.9454 28.2957 35.4175 28.7679 36.0001 28.7679C36.5826 28.7679 37.0548 28.2959 37.0548 27.7132V23.2848C37.0548 20.7292 39.134 18.6501 41.6894 18.6501H51.8865C52.469 18.6501 52.9412 18.178 52.9412 17.5954C52.9412 17.0129 52.4692 16.5407 51.8865 16.5407H41.6894C39.2999 16.5407 37.1984 17.791 36.0001 19.6705C34.8019 17.7909 32.7004 16.5407 30.3109 16.5407H16.6643C16.7255 16.3773 16.7609 16.2031 16.7609 16.0228C16.7609 15.4814 16.4658 14.984 15.9909 14.7243L13.357 13.2837L11.9166 10.6499C11.6567 10.1749 11.1591 9.87988 10.6179 9.87988C10.0766 9.87988 9.57909 10.1751 9.31935 10.6498L7.87865 13.2837L5.24474 14.7243C4.76999 14.9841 4.4751 15.4817 4.4751 16.0228C4.4751 16.5641 4.77013 17.0616 5.24488 17.3213L7.68205 18.6543C6.50348 19.9003 5.83959 21.547 5.83959 23.2847V34.0993C5.36244 34.0795 4.87532 34.1198 4.38749 34.2287C2.92598 34.5548 1.67877 35.4307 0.875945 36.6948C0.0729763 37.9589 -0.189571 39.4599 0.136539 40.9216L2.36305 50.9006C3.13888 54.378 6.03379 56.8692 9.52635 57.1566L8.66404 58.0191C7.06345 59.6199 7.06345 62.2244 8.66404 63.8252C9.43945 64.6009 10.4705 65.0279 11.5672 65.0279C12.664 65.0279 13.6949 64.6009 14.4704 63.8253L21.1108 57.185H42.3526C42.9351 57.185 43.4073 56.7129 43.4073 56.1303C43.4073 55.5477 42.9352 55.0756 42.3526 55.0756H10.2047C7.40882 55.0756 5.03085 53.17 4.42209 50.4413L2.19557 40.4623C1.77552 38.5805 2.96507 36.7076 4.84705 36.2876C6.72904 35.8672 8.60188 37.0571 9.02193 38.9392L10.0832 43.6958C10.6595 46.278 12.9096 48.0814 15.5552 48.0814H56.4455C59.091 48.0814 61.3412 46.278 61.9175 43.6957L62.9788 38.9393C63.3987 37.0572 65.2722 35.8679 67.1535 36.2876C69.0356 36.7075 70.2252 38.5803 69.8051 40.4624L67.5786 50.4412C66.9698 53.1699 64.5919 55.0756 61.796 55.0756H46.9493C46.3667 55.0756 45.8946 55.5477 45.8946 56.1303C45.8946 56.7128 46.3667 57.185 46.9493 57.185H50.8895L57.5298 63.8252C58.3054 64.6009 59.3363 65.0279 60.433 65.0279C61.5298 65.0279 62.5607 64.6009 63.3362 63.8253C64.9368 62.2244 64.9368 59.6199 63.3362 58.0189L62.4739 57.1566C65.9665 56.8692 68.8614 54.3779 69.6372 50.9003L71.8637 40.9217C72.1898 39.4604 71.9273 37.9593 71.1243 36.6952ZM9.05231 15.0466C9.30149 14.9105 9.50526 14.7067 9.64138 14.4574L10.618 12.6717L11.5947 14.4574C11.7308 14.7067 11.9346 14.9106 12.1833 15.0463L13.9695 16.0232L12.1839 16.9999C11.9346 17.1361 11.7306 17.3398 11.5949 17.5884L10.618 19.3746L9.64138 17.5889C9.50526 17.3398 9.30149 17.1359 9.05287 17.0001L7.26665 16.0232L9.05231 15.0466ZM12.9791 62.3341C12.6021 62.7113 12.1008 62.9189 11.5675 62.9189C11.0343 62.9189 10.5329 62.7112 10.1559 62.334C9.37757 61.5558 9.37757 60.2892 10.1559 59.5108L12.4816 57.1852H18.1278L12.9791 62.3341ZM12.142 43.2368L11.6281 40.9338C12.3689 40.455 13.2209 40.2033 14.1172 40.2033H30.3421C32.0377 40.2033 33.6385 41.1767 34.4249 42.6781C34.9771 43.7327 34.9457 44.8252 34.9457 45.9723H15.5551C13.9049 45.9723 12.5013 44.8474 12.142 43.2368ZM56.4455 45.9723H37.055V44.8068C37.055 42.2684 39.12 40.2033 41.6585 40.2033H57.8834C58.7801 40.2033 59.6317 40.455 60.3724 40.934L59.8586 43.2367C59.4993 44.8474 58.0956 45.9723 56.4455 45.9723ZM61.8446 62.3341C61.4676 62.7113 60.9663 62.9189 60.433 62.9189C59.8998 62.9189 59.3984 62.7112 59.0214 62.334L53.8727 57.1853H59.519L61.8446 59.5108C62.623 60.2892 62.623 61.5558 61.8446 62.3341Z" fill="#2B8761"/>
<path d="M46.6129 24.9334C46.201 24.5215 45.5333 24.5215 45.1214 24.9334C44.7095 25.3453 44.7095 26.013 45.1214 26.4249C45.5333 26.8368 46.2011 26.8368 46.6129 26.4249C47.0248 26.013 47.0248 25.3453 46.6129 24.9334Z" fill="#2B8761"/>
<path d="M55.984 26.4249C56.3959 26.013 56.3959 25.3453 55.984 24.9334C55.5721 24.5215 54.9044 24.5215 54.4925 24.9334C54.0806 25.3453 54.0806 26.013 54.4925 26.4249C54.9044 26.8368 55.5721 26.8368 55.984 26.4249Z" fill="#2B8761"/>
<path d="M45.1214 31.406C44.7095 31.8179 44.7095 32.4857 45.1214 32.8975C45.5333 33.3093 46.2011 33.3093 46.6129 32.8975C47.0248 32.4856 47.0248 31.8179 46.6129 31.406C46.201 30.9942 45.5333 30.9942 45.1214 31.406Z" fill="#2B8761"/>
<path d="M55.984 32.8976C56.3959 32.4857 56.3959 31.818 55.984 31.4061C55.5721 30.9942 54.9044 30.9942 54.4925 31.4061C54.0806 31.818 54.0806 32.4857 54.4925 32.8976C54.9044 33.3094 55.5721 33.3094 55.984 32.8976Z" fill="#2B8761"/>
<path d="M17.5074 24.9334C17.0955 24.5215 16.4278 24.5215 16.0159 24.9334C15.6041 25.3453 15.6041 26.013 16.0159 26.4249C16.4278 26.8368 17.0955 26.8368 17.5074 26.4249C17.9193 26.013 17.9193 25.3453 17.5074 24.9334Z" fill="#2B8761"/>
<path d="M26.8785 24.9334C26.4666 24.5215 25.7989 24.5215 25.387 24.9334C24.9752 25.3453 24.9752 26.013 25.387 26.4249C25.7989 26.8368 26.4666 26.8368 26.8785 26.4249C27.2904 26.013 27.2904 25.3453 26.8785 24.9334Z" fill="#2B8761"/>
<path d="M16.0159 31.406C15.6041 31.8179 15.6041 32.4857 16.0159 32.8975C16.4278 33.3093 17.0955 33.3093 17.5074 32.8975C17.9193 32.4856 17.9193 31.8179 17.5074 31.406C17.0955 30.9942 16.4278 30.9942 16.0159 31.406Z" fill="#2B8761"/>
<path d="M25.387 31.406C24.9752 31.8179 24.9752 32.4857 25.387 32.8975C25.7989 33.3093 26.4666 33.3093 26.8785 32.8975C27.2904 32.4856 27.2904 31.8179 26.8785 31.406C26.4666 30.9942 25.7989 30.9942 25.387 31.406Z" fill="#2B8761"/>
<path d="M23.1254 7.44145L25.7592 8.88202L27.1997 11.5158C27.4596 11.9908 27.9571 12.2858 28.4984 12.2858C29.0397 12.2858 29.5372 11.9908 29.7969 11.5159L31.2376 8.88202L33.8713 7.44159C34.3463 7.18172 34.6413 6.68419 34.6413 6.14292C34.6413 5.60152 34.3461 5.10398 33.8714 4.84439L31.2375 3.40383L29.7971 0.770062C29.5372 0.295031 29.0397 0 28.4984 0C27.9571 0 27.4595 0.295031 27.1999 0.769922L25.7593 3.40383L23.1255 4.84425C22.6505 5.10412 22.3555 5.60166 22.3555 6.14292C22.3555 6.68433 22.6505 7.18186 23.1254 7.44145ZM26.9334 5.16586C27.182 5.02988 27.3853 4.82653 27.5212 4.57791C27.5213 4.57777 27.5213 4.57777 27.5213 4.57763L28.4982 2.79141L29.4753 4.57791C29.6113 4.82639 29.8146 5.02988 30.0634 5.16586L31.8496 6.14278L30.0631 7.11984C29.8142 7.25611 29.6107 7.45959 29.475 7.70808L28.4981 9.4943L27.5215 7.70864C27.3855 7.45959 27.182 7.25597 26.9328 7.1197L25.1466 6.14278L26.9334 5.16586Z" fill="#2B8761"/>
</svg>
