<svg width="72" height="72" viewBox="0 0 72 72" fill="none" xmlns="http://www.w3.org/2000/svg">
<g clip-path="url(#clip0_1102_1786)">
<path d="M70.875 0H1.125C0.826631 0 0.540483 0.118526 0.329505 0.329505C0.118526 0.540483 0 0.826631 0 1.125L0 70.875C0 71.1734 0.118526 71.4595 0.329505 71.6705C0.540483 71.8815 0.826631 72 1.125 72H70.875C71.1734 72 71.4595 71.8815 71.6705 71.6705C71.8815 71.4595 72 71.1734 72 70.875V1.125C72 0.826631 71.8815 0.540483 71.6705 0.329505C71.4595 0.118526 71.1734 0 70.875 0V0ZM69.75 69.75H2.25V2.25H69.75V69.75Z" fill="#2B8761"/>
<path d="M6.75 34.875H33.75C34.0484 34.875 34.3345 34.7565 34.5455 34.5455C34.7565 34.3345 34.875 34.0484 34.875 33.75V6.75C34.875 6.45163 34.7565 6.16548 34.5455 5.95451C34.3345 5.74353 34.0484 5.625 33.75 5.625H6.75C6.45163 5.625 6.16548 5.74353 5.95451 5.95451C5.74353 6.16548 5.625 6.45163 5.625 6.75V33.75C5.625 34.0484 5.74353 34.3345 5.95451 34.5455C6.16548 34.7565 6.45163 34.875 6.75 34.875ZM16.2157 32.625L26.6704 22.1704L25.0796 20.5796L13.0343 32.625H9.46575L32.625 9.46575V32.625H16.2157ZM24.2843 7.875L12.7046 19.4546L14.2954 21.0454L27.4657 7.875H31.0343L7.875 31.0343V7.875H24.2843Z" fill="#2B8761"/>
<path d="M38.25 34.875H65.25C65.5484 34.875 65.8345 34.7565 66.0455 34.5455C66.2565 34.3345 66.375 34.0484 66.375 33.75V6.75C66.375 6.45163 66.2565 6.16548 66.0455 5.95451C65.8345 5.74353 65.5484 5.625 65.25 5.625H38.25C37.9516 5.625 37.6655 5.74353 37.4545 5.95451C37.2435 6.16548 37.125 6.45163 37.125 6.75V33.75C37.125 34.0484 37.2435 34.3345 37.4545 34.5455C37.6655 34.7565 37.9516 34.875 38.25 34.875ZM39.375 7.875H64.125V32.625H39.375V7.875Z" fill="#2B8761"/>
<path d="M6.75 66.375H33.75C34.0484 66.375 34.3345 66.2565 34.5455 66.0455C34.7565 65.8345 34.875 65.5484 34.875 65.25V38.25C34.875 37.9516 34.7565 37.6655 34.5455 37.4545C34.3345 37.2435 34.0484 37.125 33.75 37.125H6.75C6.45163 37.125 6.16548 37.2435 5.95451 37.4545C5.74353 37.6655 5.625 37.9516 5.625 38.25V65.25C5.625 65.5484 5.74353 65.8345 5.95451 66.0455C6.16548 66.2565 6.45163 66.375 6.75 66.375ZM7.875 39.375H32.625V64.125H7.875V39.375Z" fill="#2B8761"/>
<path d="M38.25 66.375H65.25C65.5484 66.375 65.8345 66.2565 66.0455 66.0455C66.2565 65.8345 66.375 65.5484 66.375 65.25V38.25C66.375 37.9516 66.2565 37.6655 66.0455 37.4545C65.8345 37.2435 65.5484 37.125 65.25 37.125H38.25C37.9516 37.125 37.6655 37.2435 37.4545 37.4545C37.2435 37.6655 37.125 37.9516 37.125 38.25V65.25C37.125 65.5484 37.2435 65.8345 37.4545 66.0455C37.6655 66.2565 37.9516 66.375 38.25 66.375ZM47.7158 64.125L58.1704 53.6704L56.5796 52.0796L44.5342 64.125H40.9658L64.125 40.9658V64.125H47.7158ZM55.7842 39.375L44.2046 50.9546L45.7954 52.5454L58.9658 39.375H62.5342L39.375 62.5342V39.375H55.7842Z" fill="#2B8761"/>
</g>
<defs>
<clipPath id="clip0_1102_1786">
<rect width="72" height="72" fill="white"/>
</clipPath>
</defs>
</svg>
